<svg xmlns="http://www.w3.org/2000/svg" width="34" height="34" viewBox="0 0 34 34" fill="none">
  <path d="M33.6644 17.3695C33.6846 16.2233 33.5636 15.0771 33.3082 13.9639H17.3384V20.1494H26.7146C26.3584 22.343 25.1015 24.2929 23.2397 25.5576L23.2061 25.7619L28.2538 29.5957L28.6033 29.6286C31.8094 26.7236 33.6644 22.4484 33.6644 17.3695Z" fill="#4285F4"/>
  <path d="M17.3384 33.6666C21.929 33.6666 25.787 32.1844 28.6033 29.6285L23.2397 25.5509C21.4988 26.6971 19.4354 27.2768 17.3451 27.2175C12.9359 27.1912 9.03753 24.3981 7.66639 20.2876L7.46475 20.3074L2.21541 24.2861L2.14819 24.4706C5.02491 30.116 10.9061 33.6732 17.3384 33.6666Z" fill="#34A853"/>
  <path d="M7.6596 20.2942C7.28993 19.2337 7.09501 18.1204 7.09501 16.9939C7.10173 15.8741 7.28993 14.7608 7.64616 13.6937L7.63944 13.4763L2.32288 9.43164L2.14813 9.51069C-0.271544 14.2207 -0.271544 19.7672 2.14813 24.4772L7.6596 20.2942Z" fill="#FBBC05"/>
  <path d="M17.3384 6.77695C19.7782 6.73743 22.1307 7.62672 23.9118 9.26039L28.7108 4.66899C25.6325 1.83642 21.5526 0.288386 17.3316 0.334497C10.8994 0.334497 5.01821 3.88509 2.13477 9.52389L7.6328 13.7069C9.01739 9.59635 12.9225 6.8033 17.3384 6.77695Z" fill="#EB4335"/>
</svg>